<mxfile host="app.diagrams.net" modified="2024-01-15T15:32:47.766Z" agent="Mozilla/5.0 (Windows NT 10.0; Win64; x64) AppleWebKit/537.36 (KHTML, like Gecko) Chrome/120.0.0.0 Safari/537.36" etag="0JnKmDWgnhZd01oDIngQ" version="22.1.18" type="device">
  <diagram name="Page-1" id="QNH4o04PL5-HqtvnA-03">
    <mxGraphModel dx="819" dy="422" grid="1" gridSize="10" guides="1" tooltips="1" connect="1" arrows="1" fold="1" page="1" pageScale="1" pageWidth="827" pageHeight="1169" math="0" shadow="0">
      <root>
        <mxCell id="0" />
        <mxCell id="1" parent="0" />
        <mxCell id="ZZo59XZzb_M29vdtCwKX-1" value="Job 1&lt;br&gt;(Test)" style="rounded=0;whiteSpace=wrap;html=1;" vertex="1" parent="1">
          <mxGeometry x="80" y="210" width="120" height="60" as="geometry" />
        </mxCell>
        <mxCell id="ZZo59XZzb_M29vdtCwKX-2" value="GitHub Source Code" style="rounded=0;whiteSpace=wrap;html=1;" vertex="1" parent="1">
          <mxGeometry x="140" y="30" width="210" height="100" as="geometry" />
        </mxCell>
        <mxCell id="ZZo59XZzb_M29vdtCwKX-3" value="" style="endArrow=classic;html=1;rounded=0;exitX=0.057;exitY=1.015;exitDx=0;exitDy=0;exitPerimeter=0;" edge="1" parent="1" source="ZZo59XZzb_M29vdtCwKX-2" target="ZZo59XZzb_M29vdtCwKX-1">
          <mxGeometry width="50" height="50" relative="1" as="geometry">
            <mxPoint x="150" y="210" as="sourcePoint" />
            <mxPoint x="160" y="208" as="targetPoint" />
          </mxGeometry>
        </mxCell>
        <mxCell id="ZZo59XZzb_M29vdtCwKX-4" value="WebHook&lt;br&gt;(Dev Branch)" style="text;html=1;strokeColor=none;fillColor=none;align=center;verticalAlign=middle;whiteSpace=wrap;rounded=0;" vertex="1" parent="1">
          <mxGeometry x="70" y="150" width="80" height="30" as="geometry" />
        </mxCell>
        <mxCell id="ZZo59XZzb_M29vdtCwKX-5" value="Job 2&lt;br&gt;(Merge)" style="rounded=0;whiteSpace=wrap;html=1;" vertex="1" parent="1">
          <mxGeometry x="250" y="210" width="120" height="60" as="geometry" />
        </mxCell>
        <mxCell id="ZZo59XZzb_M29vdtCwKX-6" value="" style="endArrow=classic;html=1;rounded=0;entryX=0;entryY=0.5;entryDx=0;entryDy=0;" edge="1" parent="1" target="ZZo59XZzb_M29vdtCwKX-5">
          <mxGeometry width="50" height="50" relative="1" as="geometry">
            <mxPoint x="200" y="240" as="sourcePoint" />
            <mxPoint x="250" y="190" as="targetPoint" />
          </mxGeometry>
        </mxCell>
        <mxCell id="ZZo59XZzb_M29vdtCwKX-7" value="" style="endArrow=classic;html=1;rounded=0;entryX=0.75;entryY=1;entryDx=0;entryDy=0;" edge="1" parent="1" target="ZZo59XZzb_M29vdtCwKX-2">
          <mxGeometry width="50" height="50" relative="1" as="geometry">
            <mxPoint x="300" y="210" as="sourcePoint" />
            <mxPoint x="300" y="160" as="targetPoint" />
          </mxGeometry>
        </mxCell>
        <mxCell id="ZZo59XZzb_M29vdtCwKX-8" value="Job 3&lt;br&gt;(Deploy)" style="rounded=0;whiteSpace=wrap;html=1;" vertex="1" parent="1">
          <mxGeometry x="414" y="210" width="120" height="60" as="geometry" />
        </mxCell>
        <mxCell id="ZZo59XZzb_M29vdtCwKX-9" value="" style="endArrow=classic;html=1;rounded=0;entryX=0;entryY=0.5;entryDx=0;entryDy=0;" edge="1" parent="1" target="ZZo59XZzb_M29vdtCwKX-8">
          <mxGeometry width="50" height="50" relative="1" as="geometry">
            <mxPoint x="370" y="240" as="sourcePoint" />
            <mxPoint x="420" y="190" as="targetPoint" />
          </mxGeometry>
        </mxCell>
        <mxCell id="ZZo59XZzb_M29vdtCwKX-11" value="Merge Dev to main" style="text;html=1;strokeColor=none;fillColor=none;align=center;verticalAlign=middle;whiteSpace=wrap;rounded=0;" vertex="1" parent="1">
          <mxGeometry x="220" y="150" width="80" height="30" as="geometry" />
        </mxCell>
        <mxCell id="ZZo59XZzb_M29vdtCwKX-12" value="EC2 instance" style="rounded=0;whiteSpace=wrap;html=1;" vertex="1" parent="1">
          <mxGeometry x="400" y="30" width="160" height="100" as="geometry" />
        </mxCell>
        <mxCell id="ZZo59XZzb_M29vdtCwKX-13" value="" style="endArrow=classic;html=1;rounded=0;entryX=0.5;entryY=1;entryDx=0;entryDy=0;" edge="1" parent="1" target="ZZo59XZzb_M29vdtCwKX-12">
          <mxGeometry width="50" height="50" relative="1" as="geometry">
            <mxPoint x="470" y="210" as="sourcePoint" />
            <mxPoint x="520" y="160" as="targetPoint" />
          </mxGeometry>
        </mxCell>
        <mxCell id="ZZo59XZzb_M29vdtCwKX-14" value="Deploy using SSH and SCP" style="text;html=1;strokeColor=none;fillColor=none;align=center;verticalAlign=middle;whiteSpace=wrap;rounded=0;" vertex="1" parent="1">
          <mxGeometry x="480" y="150" width="80" height="30" as="geometry" />
        </mxCell>
      </root>
    </mxGraphModel>
  </diagram>
</mxfile>
